<svg width="298" height="74" viewBox="0 0 298 74" fill="none" xmlns="http://www.w3.org/2000/svg">
<path d="M22.656 21.56C20.064 21.56 17.824 21.128 15.936 20.264L14.4 28.04H23.664C23.664 29.736 23.232 31.128 22.368 32.216C21.536 33.272 20.352 33.8 18.816 33.8C17.152 33.8 15.552 33.496 14.016 32.888C13.696 32.76 13.52 32.68 13.488 32.648L10.752 47H0.288L6.384 15.32H27.792C27.792 17.272 27.328 18.808 26.4 19.928C25.504 21.016 24.256 21.56 22.656 21.56ZM28.3331 45.56C27.5971 44.728 27.0531 43.656 26.7011 42.344C26.3811 41.032 26.2211 39.304 26.2211 37.16C26.2211 35.016 26.5891 32.968 27.3251 31.016C28.0611 29.064 29.1011 27.384 30.4451 25.976C33.1971 23.032 36.8451 21.56 41.3891 21.56C43.0211 21.56 44.4291 21.832 45.6131 22.376L53.8211 21.56L50.2691 40.28C50.1731 40.664 50.1251 41.208 50.1251 41.912C50.1251 42.616 50.3331 43.192 50.7491 43.64C51.1971 44.088 51.7411 44.344 52.3811 44.408C52.0611 45.496 51.3091 46.36 50.1251 47C48.9731 47.64 47.7411 47.96 46.4291 47.96C45.1171 47.96 44.0131 47.704 43.1171 47.192C42.2531 46.712 41.6931 46.056 41.4371 45.224C40.9251 46.024 40.1251 46.68 39.0371 47.192C37.9491 47.704 36.6691 47.96 35.1971 47.96C33.7571 47.96 32.4451 47.768 31.2611 47.384C30.0771 47 29.1011 46.392 28.3331 45.56ZM38.4611 26.072C38.1091 26.648 37.7731 27.432 37.4531 28.424C37.1331 29.384 36.7011 31.176 36.1571 33.8C35.6451 36.392 35.3891 38.616 35.3891 40.472C35.3891 42.328 35.5331 43.528 35.8211 44.072C36.1091 44.616 36.5091 44.888 37.0211 44.888C38.0451 44.888 38.9251 44.408 39.6611 43.448C40.4291 42.456 40.9571 41.096 41.2451 39.368L43.7891 25.304C43.1171 24.728 42.3811 24.44 41.5811 24.44C40.8131 24.44 40.1891 24.568 39.7091 24.824C39.2611 25.08 38.8451 25.496 38.4611 26.072ZM70.7618 30.152C71.2098 28.968 71.4338 27.864 71.4338 26.84C71.4338 24.952 70.6658 24.008 69.1298 24.008C68.3298 24.008 67.5938 24.376 66.9218 25.112C66.2818 25.816 65.9618 26.616 65.9618 27.512C65.9618 28.152 66.2178 28.728 66.7298 29.24C67.4658 29.944 68.7778 30.872 70.6658 32.024C72.5538 33.176 73.8498 34.232 74.5538 35.192C75.2898 36.12 75.6578 37.24 75.6578 38.552C75.6578 39.832 75.3378 41.064 74.6978 42.248C74.0898 43.432 73.2258 44.44 72.1058 45.272C69.7058 47.064 66.5858 47.96 62.7458 47.96C60.6658 47.96 58.8258 47.416 57.2258 46.328C55.6258 45.272 54.8257 44.12 54.8257 42.872C54.8257 41.624 55.2737 40.632 56.1698 39.896C57.0978 39.16 58.2338 38.792 59.5778 38.792C60.9218 38.792 62.0098 39.048 62.8418 39.56C62.4258 40.616 62.2178 41.496 62.2178 42.2C62.2178 44.312 63.1138 45.368 64.9058 45.368C65.6738 45.368 66.3138 45.128 66.8258 44.648C67.3378 44.168 67.5938 43.512 67.5938 42.68C67.5938 41.048 66.2178 39.368 63.4658 37.64C61.2258 36.168 59.8498 35.144 59.3378 34.568C58.4738 33.544 58.0418 32.392 58.0418 31.112C58.0418 29.832 58.3458 28.584 58.9538 27.368C59.5618 26.152 60.4258 25.112 61.5458 24.248C63.8818 22.456 67.0818 21.56 71.1458 21.56C73.2258 21.56 74.8738 21.976 76.0898 22.808C77.3378 23.64 77.9618 24.76 77.9618 26.168C77.9618 27.576 77.5298 28.68 76.6658 29.48C75.8338 30.28 74.6498 30.68 73.1138 30.68C72.0578 30.68 71.2738 30.504 70.7618 30.152ZM80.5215 42.2C80.5215 41.336 80.7455 39.816 81.1935 37.64L83.7375 24.68H80.9055L81.0975 23.24C84.9375 22.088 88.7135 20.104 92.4255 17.288H94.7295L93.5775 22.52H97.3215L96.8895 24.68H93.1935L90.7455 37.64C90.3295 39.624 90.1215 40.952 90.1215 41.624C90.1215 43.16 90.7935 44.088 92.1375 44.408C91.8175 45.496 91.0815 46.36 89.9295 47C88.7775 47.64 87.3855 47.96 85.7535 47.96C84.1215 47.96 82.8415 47.448 81.9135 46.424C80.9855 45.4 80.5215 43.992 80.5215 42.2ZM136.124 30.68C133.82 35.736 132.668 41.192 132.668 47.048C131.804 47.656 130.732 47.96 129.452 47.96C128.204 47.96 127.18 47.656 126.38 47.048C125.58 46.472 125.1 45.88 124.94 45.272C124.14 46.104 123.084 46.76 121.772 47.24C120.492 47.72 119.164 47.96 117.788 47.96C116.412 47.96 115.116 47.736 113.9 47.288C112.716 46.84 111.66 46.12 110.732 45.128C108.684 42.952 107.66 39.8 107.66 35.672C107.66 29.272 109.372 24.152 112.796 20.312C116.316 16.344 121.196 14.36 127.436 14.36C131.756 14.36 134.684 15.48 136.22 17.72C136.7 18.424 136.94 19.208 136.94 20.072C136.94 20.904 136.748 21.688 136.364 22.424C136.012 23.128 135.548 23.768 134.972 24.344C133.596 25.624 132.06 26.264 130.364 26.264C129.692 26.264 129.036 26.152 128.396 25.928C128.524 24.968 128.588 23.928 128.588 22.808C128.588 21.688 128.54 20.872 128.444 20.36C128.38 19.848 128.252 19.384 128.06 18.968C127.644 18.104 126.972 17.672 126.044 17.672C125.148 17.672 124.188 18.168 123.164 19.16C122.172 20.12 121.276 21.4 120.476 23C118.716 26.584 117.836 30.536 117.836 34.856C117.836 36.84 118.22 38.536 118.988 39.944C119.82 41.48 120.972 42.248 122.444 42.248C122.956 42.248 123.436 42.12 123.884 41.864C124.364 41.608 124.7 41.384 124.892 41.192L126.428 31.544L136.124 30.68ZM153.512 33.512C154.664 31.464 155.24 29.4 155.24 27.32C155.24 25.944 154.744 25.256 153.752 25.256C152.984 25.256 152.2 25.912 151.4 27.224C150.568 28.536 150.024 30.04 149.768 31.736L147.272 47L137.336 47.96L142.232 22.52L150.152 21.56L149.288 26.408C150.856 23.176 153.4 21.56 156.92 21.56C158.776 21.56 160.2 22.04 161.192 23C162.216 23.96 162.728 25.432 162.728 27.416C162.728 29.368 162.072 30.968 160.76 32.216C159.48 33.464 157.736 34.088 155.528 34.088C154.568 34.088 153.896 33.896 153.512 33.512ZM165.583 45.56C164.847 44.728 164.303 43.656 163.951 42.344C163.631 41.032 163.471 39.304 163.471 37.16C163.471 35.016 163.839 32.968 164.575 31.016C165.311 29.064 166.351 27.384 167.695 25.976C170.447 23.032 174.095 21.56 178.639 21.56C180.271 21.56 181.679 21.832 182.863 22.376L191.071 21.56L187.519 40.28C187.423 40.664 187.375 41.208 187.375 41.912C187.375 42.616 187.583 43.192 187.999 43.64C188.447 44.088 188.991 44.344 189.631 44.408C189.311 45.496 188.559 46.36 187.375 47C186.223 47.64 184.991 47.96 183.679 47.96C182.367 47.96 181.263 47.704 180.367 47.192C179.503 46.712 178.943 46.056 178.687 45.224C178.175 46.024 177.375 46.68 176.287 47.192C175.199 47.704 173.919 47.96 172.447 47.96C171.007 47.96 169.695 47.768 168.511 47.384C167.327 47 166.351 46.392 165.583 45.56ZM175.711 26.072C175.359 26.648 175.023 27.432 174.703 28.424C174.383 29.384 173.951 31.176 173.407 33.8C172.895 36.392 172.639 38.616 172.639 40.472C172.639 42.328 172.783 43.528 173.071 44.072C173.359 44.616 173.759 44.888 174.271 44.888C175.295 44.888 176.175 44.408 176.911 43.448C177.679 42.456 178.207 41.096 178.495 39.368L181.039 25.304C180.367 24.728 179.631 24.44 178.831 24.44C178.063 24.44 177.439 24.568 176.959 24.824C176.511 25.08 176.095 25.496 175.711 26.072ZM216.028 43.736C214.684 45.08 213.084 46.12 211.228 46.856C209.404 47.592 207.58 47.96 205.756 47.96C203.932 47.96 202.7 47.8 202.06 47.48L200.572 55.64L190.828 56.6L197.452 22.52L205.276 21.704L204.652 25.016C205.996 22.744 208.06 21.608 210.844 21.608C213.98 21.608 216.38 22.616 218.044 24.632C219.516 26.456 220.252 28.76 220.252 31.544C220.252 34.328 219.884 36.712 219.148 38.696C218.412 40.68 217.372 42.36 216.028 43.736ZM202.636 44.312C203.308 44.888 204.06 45.176 204.892 45.176C205.724 45.176 206.38 45.016 206.86 44.696C207.34 44.376 207.756 43.896 208.108 43.256C209.068 41.528 209.932 38.04 210.7 32.792C210.924 31.256 211.036 29.736 211.036 28.232C211.036 26.728 210.86 25.736 210.508 25.256C210.188 24.776 209.708 24.536 209.068 24.536C207.116 24.536 205.82 26.44 205.18 30.248L202.636 44.312ZM247.288 41.672C247.288 43.08 248.008 43.992 249.448 44.408C249.096 45.592 248.232 46.504 246.856 47.144C245.704 47.688 244.488 47.96 243.208 47.96C241.96 47.96 241 47.784 240.328 47.432C239.688 47.112 239.192 46.68 238.84 46.136C238.264 45.304 237.976 44.104 237.976 42.536C237.976 41.608 238.232 39.864 238.744 37.304L239.416 33.656C239.96 30.872 240.232 28.968 240.232 27.944C240.232 26.152 239.736 25.256 238.744 25.256C237.496 25.256 236.472 26.168 235.672 27.992C235.352 28.696 235.08 29.576 234.856 30.632L231.592 47L221.944 47.96L228.712 13.4L238.36 12.44L237.976 14.36C237.08 19.288 236.248 22.584 235.48 24.248C237.272 22.456 239.816 21.56 243.112 21.56C246.6 21.56 248.664 22.712 249.304 25.016C249.528 25.752 249.64 26.44 249.64 27.08C249.64 27.72 249.608 28.296 249.544 28.808C249.512 29.288 249.416 29.976 249.256 30.872L248.632 34.328L247.528 39.752C247.368 40.488 247.288 41.128 247.288 41.672Z" fill="#E73959"/>
<path d="M271.09 26.2501H265.218L271.921 7.57497C272.122 7.00555 271.911 6.34246 271.451 6.09387C271.337 6.03228 271.214 6.00032 271.09 6.00001H252.912C252.41 5.99811 252.002 6.50024 252 7.12156C252 7.15204 252.001 7.18242 252.003 7.21279L253.821 36.4628C253.858 37.0497 254.254 37.5019 254.729 37.5001H257.543L259.28 58.9876C259.33 59.6058 259.776 60.0566 260.275 59.9942C260.604 59.9532 260.889 59.6944 261.019 59.3184L271.926 27.8183C272.124 27.2472 271.91 26.5859 271.449 26.3411C271.335 26.2809 271.213 26.25 271.09 26.2501Z" fill="#E73959"/>
<path d="M297.384 28.032C297.384 29.376 296.824 30.464 295.704 31.296C294.584 32.128 293.112 32.544 291.288 32.544C290.52 32.544 289.912 32.432 289.464 32.208C289.816 31.376 290.04 30.448 290.136 29.424C290.264 28.368 290.328 27.696 290.328 27.408C290.328 26.064 289.864 25.392 288.936 25.392C288.296 25.392 287.608 25.792 286.872 26.592C286.168 27.392 285.512 28.416 284.904 29.664C283.56 32.544 282.888 35.44 282.888 38.352C282.888 39.952 283.192 41.12 283.8 41.856C284.408 42.56 285.384 42.912 286.728 42.912C288.584 42.912 290.248 42.144 291.72 40.608C292.136 40.128 292.456 39.616 292.68 39.072C293.896 39.712 294.504 40.912 294.504 42.672C294.504 44.464 293.512 45.952 291.528 47.136C289.48 48.352 286.824 48.96 283.56 48.96C277.064 48.96 273.816 45.52 273.816 38.64C273.816 33.616 275.24 29.664 278.088 26.784C280.84 23.968 284.744 22.56 289.8 22.56C294.856 22.56 297.384 24.384 297.384 28.032Z" fill="#E73959"/>
</svg>
